<svg width="32" height="32" viewBox="0 0 32 32" fill="none" xmlns="http://www.w3.org/2000/svg">
<path d="M16 17.3333V27.0979C16 27.4968 16 27.6962 15.8712 27.7676C15.7424 27.839 15.5733 27.7333 15.235 27.5219L6.27333 21.9208C5.81381 21.6336 5.58404 21.49 5.45869 21.2639C5.33333 21.0377 5.33333 20.7667 5.33333 20.2248V10.6667M16 17.3333L5.33333 10.6667M16 17.3333L23.9531 12.3627C25.1709 11.6015 25.7799 11.2209 25.7799 10.6667C25.7799 10.1124 25.1709 9.73184 23.9531 8.97067L17.06 4.6625C16.5445 4.34033 16.2868 4.17925 16 4.17925C15.7132 4.17925 15.4555 4.34033 14.94 4.6625L5.33333 10.6667" stroke="white" stroke-width="3" stroke-linejoin="round"/>
<path d="M25.1667 16C25.1667 16.8284 25.8382 17.5 26.6667 17.5C27.4951 17.5 28.1667 16.8284 28.1667 16H25.1667ZM26.5413 10.7361L27.8533 10.009L26.5413 10.7361ZM25.1667 11.7752V16H28.1667V11.7752H25.1667ZM26.5217 8.80717L22.1283 6.06133L20.5383 8.60533L24.9317 11.3512L26.5217 8.80717ZM28.1667 11.7752C28.1667 11.5324 28.1682 11.2459 28.1442 10.9944C28.1171 10.711 28.0504 10.3648 27.8533 10.009L25.2293 11.4633C25.1967 11.4044 25.1764 11.3488 25.1651 11.3066C25.1551 11.2693 25.1554 11.2547 25.1578 11.2801C25.1604 11.3073 25.1633 11.3559 25.165 11.4439C25.1666 11.5323 25.1667 11.6357 25.1667 11.7752H28.1667ZM24.9317 11.3512C25.05 11.4251 25.1376 11.4799 25.2116 11.5281C25.2854 11.5762 25.3251 11.6045 25.3467 11.621C25.367 11.6366 25.3544 11.6291 25.3282 11.6009C25.2984 11.5689 25.262 11.5222 25.2293 11.4633L27.8533 10.009C27.6561 9.65323 27.3977 9.41322 27.1718 9.24006C26.9713 9.08633 26.7275 8.93581 26.5217 8.80717L24.9317 11.3512Z" fill="white"/>
<circle cx="23.3333" cy="22" r="3.33333" stroke="white" stroke-width="3"/>
<path d="M28 26.6667L26 24.6667" stroke="white" stroke-width="3" stroke-linecap="round"/>
<path d="M19.4617 27.6053C20.1642 27.1663 20.3777 26.2408 19.9387 25.5383C19.4996 24.8358 18.5742 24.6223 17.8717 25.0613L19.4617 27.6053ZM17.3333 27.1667L18.1283 28.4387L17.3333 27.1667ZM14.94 27.3375L14.145 28.6095L14.94 27.3375ZM16 27.8208L16 26.3208L16 27.8208ZM15.735 26.0655L11.4617 23.3947L9.87167 25.9387L14.145 28.6095L15.735 26.0655ZM16.5383 25.8947L16.265 26.0655L17.855 28.6095L18.1283 28.4387L16.5383 25.8947ZM17.8717 25.0613L17.205 25.478L18.795 28.022L19.4617 27.6053L17.8717 25.0613ZM17.205 25.478L16.5383 25.8947L18.1283 28.4387L18.795 28.022L17.205 25.478ZM14.145 28.6095C14.3764 28.7541 14.6458 28.9247 14.8969 29.0475C15.1793 29.1856 15.5476 29.3208 16 29.3208L16 26.3208C16.0747 26.3208 16.1398 26.3321 16.187 26.3452C16.2283 26.3566 16.2415 26.3655 16.2147 26.3524C16.1863 26.3385 16.1373 26.3121 16.052 26.2612C15.9665 26.2101 15.8676 26.1484 15.735 26.0655L14.145 28.6095ZM16.265 26.0655C16.1324 26.1484 16.0335 26.2101 15.9481 26.2612C15.8627 26.3121 15.8137 26.3385 15.7853 26.3524C15.7585 26.3655 15.7717 26.3566 15.813 26.3452C15.8602 26.3321 15.9253 26.3208 16 26.3208L16 29.3208C16.4524 29.3208 16.8207 29.1856 17.1032 29.0475C17.3542 28.9247 17.6236 28.7541 17.855 28.6095L16.265 26.0655Z" fill="white"/>
</svg>
