<svg width="100" height="100" viewBox="0 0 100 100" fill="none" xmlns="http://www.w3.org/2000/svg">
<path d="M43.75 50H50V66.6667H58.3333M50 33.3333H50.0417M56.5118 86.9303C61.3616 86.0751 65.9954 84.2731 70.1487 81.6272C74.3021 78.9812 77.8936 75.5431 80.7182 71.5091C83.5428 67.4751 85.5452 62.9243 86.6111 58.1165C87.677 53.3086 87.7854 48.3379 86.9303 43.4882C86.0751 38.6384 84.2731 34.0046 81.6272 29.8513C78.9812 25.6979 75.5431 22.1064 71.5091 19.2818C67.4751 16.4572 62.9243 14.4548 58.1165 13.3889C53.3086 12.323 48.3379 12.2146 43.4882 13.0697C38.6384 13.9249 34.0046 15.7269 29.8513 18.3728C25.6979 21.0188 22.1064 24.4569 19.2818 28.4909C16.4572 32.5249 14.4548 37.0757 13.3889 41.8835C12.323 46.6914 12.2146 51.6621 13.0697 56.5118C13.9249 61.3616 15.7269 65.9954 18.3728 70.1487C21.0188 74.3021 24.4569 77.8936 28.4909 80.7182C32.5249 83.5428 37.0757 85.5452 41.8835 86.6111C46.6914 87.677 51.6621 87.7854 56.5118 86.9303Z" stroke="white" stroke-width="7" stroke-linecap="round" stroke-linejoin="round"/>
</svg>
