<svg width="70" height="63" viewBox="0 0 70 63" fill="none" xmlns="http://www.w3.org/2000/svg">
<path d="M14.8796 18.3094L22.536 30.432C22.8639 30.9511 23.0278 31.2106 23.0278 31.5C23.0278 31.7894 22.8639 32.0489 22.536 32.568L14.8796 44.6906C13.5298 46.8278 12.8549 47.8963 13.3181 48.455C13.7812 49.0137 14.9564 48.5485 17.3067 47.6182L53.3283 33.3596C55.3156 32.573 56.3093 32.1797 56.3093 31.5C56.3093 30.8203 55.3156 30.427 53.3283 29.6404L17.3067 15.3818C14.9564 14.4515 13.7812 13.9863 13.3181 14.545C12.8549 15.1037 13.5298 16.1722 14.8796 18.3094Z" stroke="white" stroke-width="5"/>
</svg>
