<svg width="62" height="62" viewBox="0 0 62 62" fill="none" xmlns="http://www.w3.org/2000/svg">
<path d="M36.7799 4.80099L39.2674 4.55223L39.2674 4.55223L36.7799 4.80099ZM36.3658 3.25855L38.0433 1.40492L38.0433 1.40491L36.3658 3.25855ZM37.3952 10.9546L39.8828 10.7058L39.8828 10.7058L37.3952 10.9546ZM38.1931 13.6338L37.2363 15.9435L37.2363 15.9435L38.1931 13.6338ZM40.6518 12.3035L39.0687 10.3686L39.0687 10.3686L40.6518 12.3035ZM45.4381 8.38738L43.855 6.45248L43.855 6.45249L45.4381 8.38738ZM46.8216 7.58951L46.697 10.0864L46.697 10.0864L46.8216 7.58951ZM48.1188 8.52108L46.351 10.2888L46.351 10.2888L48.1188 8.52108ZM53.4787 13.881L55.2464 12.1132L55.2464 12.1132L53.4787 13.881ZM54.4102 15.1782L56.9071 15.0537L56.9071 15.0537L54.4102 15.1782ZM53.6124 16.5617L51.6775 14.9786L51.6775 14.9786L53.6124 16.5617ZM49.6963 21.348L47.7614 19.7649L49.6963 21.348ZM51.0452 24.6045L50.7965 27.0921L50.7965 27.0921L51.0452 24.6045ZM57.199 25.2199L57.4478 22.7323L57.4478 22.7323L57.199 25.2199ZM58.7415 25.634L56.8878 27.3115L56.8878 27.3115L58.7415 25.634ZM58.7415 36.366L56.8878 34.6885L56.8878 34.6885L58.7415 36.366ZM57.199 36.7801L57.4478 39.2677L57.4478 39.2677L57.199 36.7801ZM51.0464 37.3953L51.2952 39.8829L51.2952 39.8829L51.0464 37.3953ZM49.6975 40.6519L47.7626 42.235L47.7626 42.235L49.6975 40.6519ZM53.6127 45.4371L51.6778 47.0202L51.6778 47.0202L53.6127 45.4371ZM54.4106 46.8206L56.9074 46.9451L56.9075 46.9451L54.4106 46.8206ZM48.1191 53.4777L46.3513 51.7099L46.3513 51.7099L48.1191 53.4777ZM46.8219 54.4093L46.9464 56.9062L46.9464 56.9062L46.8219 54.4093ZM45.4384 53.6114L43.8553 55.5463L43.8553 55.5463L45.4384 53.6114ZM40.6519 49.6952L42.235 47.7603L42.235 47.7603L40.6519 49.6952ZM38.1932 48.3648L37.2365 46.0551L37.2365 46.0551L38.1932 48.3648ZM37.3953 51.0441L39.8829 51.2928L39.8829 51.2928L37.3953 51.0441ZM36.7799 57.199L39.2674 57.4478L39.2674 57.4478L36.7799 57.199ZM36.3658 58.7415L34.6883 56.8878L34.6883 56.8878L36.3658 58.7415ZM25.6337 58.7415L27.3113 56.8878L27.3112 56.8878L25.6337 58.7415ZM25.2197 57.199L27.7072 56.9503L27.7072 56.9502L25.2197 57.199ZM24.6043 51.0455L27.0919 50.7967L27.0919 50.7967L24.6043 51.0455ZM23.8065 48.3662L24.7632 46.0565L24.7632 46.0565L23.8065 48.3662ZM21.3477 49.6965L22.9308 51.6314L22.9308 51.6314L21.3477 49.6965ZM16.5614 53.6127L18.1445 55.5476L18.1445 55.5476L16.5614 53.6127ZM15.1779 54.4105L15.0534 56.9074L15.0534 56.9074L15.1779 54.4105ZM13.8807 53.479L15.6485 51.7112L15.6485 51.7112L13.8807 53.479ZM8.52079 48.1191L10.2886 46.3513L10.2886 46.3513L8.52079 48.1191ZM7.58922 46.8218L10.0861 46.6973L10.0861 46.6973L7.58922 46.8218ZM8.38709 45.4384L6.4522 43.8553L6.45219 43.8553L8.38709 45.4384ZM12.3032 40.652L10.3683 39.0689L10.3683 39.0689L12.3032 40.652ZM13.6336 38.1933L11.3239 39.15L11.3239 39.15L13.6336 38.1933ZM10.9543 37.3954L10.7056 39.883L10.7056 39.883L10.9543 37.3954ZM4.80099 36.7801L4.55223 39.2677L4.55223 39.2677L4.80099 36.7801ZM3.25855 36.366L1.40492 38.0435L1.40492 38.0435L3.25855 36.366ZM3.25855 25.634L5.11218 27.3115L5.11218 27.3115L3.25855 25.634ZM4.80097 25.2199V22.7199H4.67628L4.55221 22.7323L4.80097 25.2199ZM4.80099 25.2199V27.7199H4.92568L5.04975 27.7075L4.80099 25.2199ZM10.9555 24.6044L10.7068 22.1168L10.7068 22.1168L10.9555 24.6044ZM12.3044 21.3479L14.2393 19.7648L12.3044 21.3479ZM8.3874 16.5604L6.4525 18.1435L6.4525 18.1435L8.3874 16.5604ZM7.58952 15.1769L10.0864 15.3015L10.0864 15.3015L7.58952 15.1769ZM8.5211 13.8797L10.2889 15.6475L10.2889 15.6475L8.5211 13.8797ZM13.881 8.5198L12.1132 6.75203L12.1132 6.75203L13.881 8.5198ZM15.1782 7.58823L15.0537 5.09133L15.0537 5.09133L15.1782 7.58823ZM16.5617 8.3861L14.9786 10.321L14.9786 10.321L16.5617 8.3861ZM21.3479 12.3021L19.7648 14.237L19.7648 14.237L21.3479 12.3021ZM23.8066 13.6325L24.7633 15.9422L24.7633 15.9422L23.8066 13.6325ZM24.6044 10.9532L27.092 11.2019L27.092 11.2019L24.6044 10.9532ZM25.2197 4.80099L27.7072 5.04975L27.7072 5.04975L25.2197 4.80099ZM39.2674 4.55223C39.2313 4.19077 39.1852 3.68066 39.0832 3.24106C38.9652 2.73193 38.7101 2.00841 38.0433 1.40492L34.6883 5.11217C34.6066 5.03825 34.5312 4.95586 34.4644 4.86699C34.3979 4.7787 34.3471 4.69364 34.3089 4.61815C34.2354 4.47315 34.2128 4.37176 34.2125 4.37044C34.2117 4.36714 34.2144 4.37828 34.2195 4.40948C34.2246 4.44055 34.2309 4.48395 34.2384 4.54455C34.2544 4.67264 34.27 4.82688 34.2923 5.04975L39.2674 4.55223ZM39.8828 10.7058L39.2674 4.55223L34.2923 5.04975L34.9076 11.2033L39.8828 10.7058ZM39.1498 11.3241C39.3195 11.3944 39.484 11.4938 39.6318 11.6202C39.7772 11.7446 39.8801 11.8726 39.9496 11.9787C40.0752 12.1705 40.0935 12.2943 40.0725 12.211C40.054 12.1374 40.0261 11.9909 39.9912 11.7159C39.957 11.4455 39.9246 11.1241 39.8828 10.7058L34.9076 11.2033C34.9808 11.9356 35.0578 12.7715 35.2236 13.4308C35.3904 14.0937 35.8342 15.3628 37.2363 15.9435L39.1498 11.3241ZM39.0687 10.3686C38.7433 10.6348 38.4932 10.8392 38.2778 11.0061C38.0586 11.176 37.9353 11.2598 37.8702 11.2987C37.7964 11.3428 37.8969 11.2682 38.1214 11.2214C38.2455 11.1955 38.4088 11.1777 38.5996 11.1926C38.7934 11.2077 38.9801 11.2539 39.1498 11.3241L37.2363 15.9435C38.6385 16.5243 39.8497 15.9408 40.4363 15.59C41.0198 15.2411 41.6653 14.7044 42.2349 14.2384L39.0687 10.3686ZM43.855 6.45249L39.0687 10.3686L42.2349 14.2384L47.0212 10.3223L43.855 6.45249ZM46.9461 5.09261C46.0478 5.04781 45.3559 5.37907 44.9124 5.6556C44.5295 5.89437 44.1361 6.22245 43.855 6.45248L47.0212 10.3223C47.1945 10.1804 47.3146 10.0824 47.4165 10.0031C47.4647 9.9656 47.4998 9.93935 47.5254 9.92099C47.551 9.90255 47.5608 9.89656 47.5579 9.89836C47.5568 9.89907 47.4691 9.95476 47.3146 10.0053C47.2342 10.0317 47.1381 10.0559 47.0287 10.0713C46.9186 10.0869 46.8071 10.0919 46.697 10.0864L46.9461 5.09261ZM49.8865 6.75332C49.6297 6.49645 49.2709 6.13086 48.9137 5.85517C48.4999 5.53587 47.8444 5.13741 46.9461 5.09261L46.697 10.0864C46.587 10.0809 46.4765 10.0649 46.3685 10.0384C46.2612 10.0121 46.168 9.9785 46.0906 9.9443C45.9419 9.87859 45.8601 9.81445 45.8591 9.81363C45.8564 9.81155 45.8655 9.81848 45.8892 9.83938C45.9129 9.8602 45.9452 9.88981 45.9894 9.93193C46.0829 10.021 46.1926 10.1305 46.351 10.2888L49.8865 6.75332ZM55.2464 12.1132L49.8865 6.75331L46.351 10.2888L51.7109 15.6488L55.2464 12.1132ZM56.9071 15.0537C56.8623 14.1554 56.4639 13.4998 56.1446 13.0861C55.8689 12.7288 55.5033 12.3701 55.2464 12.1132L51.7109 15.6487C51.8693 15.8071 51.9788 15.9169 52.0678 16.0103C52.1099 16.0546 52.1395 16.0869 52.1604 16.1105C52.1813 16.1342 52.1882 16.1434 52.1861 16.1407C52.1853 16.1396 52.1212 16.0579 52.0555 15.9092C52.0213 15.8318 51.9876 15.7386 51.9613 15.6313C51.9349 15.5233 51.9188 15.4128 51.9134 15.3027L56.9071 15.0537ZM55.5473 18.1448C55.7773 17.8636 56.1054 17.4703 56.3442 17.0874C56.6207 16.6439 56.9519 15.9519 56.9071 15.0537L51.9134 15.3027C51.9079 15.1927 51.9128 15.0812 51.9284 14.971C51.9439 14.8616 51.9681 14.7655 51.9944 14.6851C52.045 14.5306 52.1007 14.443 52.1014 14.4418C52.1032 14.4389 52.0972 14.4487 52.0788 14.4744C52.0604 14.5 52.0342 14.5351 51.9966 14.5833C51.9174 14.6851 51.8193 14.8052 51.6775 14.9786L55.5473 18.1448ZM51.6312 22.9311L55.5473 18.1448L51.6775 14.9786L47.7614 19.7649L51.6312 22.9311ZM50.6756 22.85C50.7459 23.0196 50.7921 23.2063 50.8072 23.4001C50.822 23.5909 50.8042 23.7542 50.7784 23.8783C50.7315 24.1029 50.657 24.2033 50.7011 24.1295C50.74 24.0644 50.8238 23.9411 50.9937 23.7219C51.1606 23.5065 51.365 23.2564 51.6312 22.9311L47.7614 19.7649C47.2954 20.3344 46.7587 20.9799 46.4098 21.5634C46.059 22.15 45.4755 23.3612 46.0562 24.7634L50.6756 22.85ZM51.294 22.1169C50.8757 22.0751 50.5543 22.0428 50.2839 22.0085C50.0088 21.9736 49.8624 21.9457 49.7888 21.9272C49.7055 21.9062 49.8292 21.9245 50.0211 22.0502C50.1272 22.1196 50.2552 22.2225 50.3796 22.3679C50.506 22.5157 50.6053 22.6803 50.6756 22.85L46.0562 24.7634C46.637 26.1655 47.9061 26.6093 48.5689 26.7761C49.2283 26.942 50.0642 27.0189 50.7965 27.0921L51.294 22.1169ZM57.4478 22.7323L51.294 22.1169L50.7965 27.0921L56.9502 27.7075L57.4478 22.7323ZM60.5951 23.9565C59.9916 23.2896 59.2681 23.0346 58.7589 22.9165C58.3193 22.8146 57.8092 22.7684 57.4478 22.7323L56.9502 27.7075C57.1731 27.7298 57.3274 27.7453 57.4555 27.7613C57.5161 27.7689 57.5595 27.7752 57.5905 27.7803C57.6217 27.7854 57.6329 27.7881 57.6296 27.7873C57.6282 27.787 57.5269 27.7644 57.3818 27.6909C57.3064 27.6526 57.2213 27.6018 57.133 27.5354C57.0441 27.4685 56.9617 27.3932 56.8878 27.3115L60.5951 23.9565ZM61.5 27.21C61.5 26.8467 61.5049 26.3345 61.4472 25.887C61.3804 25.3686 61.1986 24.6233 60.5951 23.9565L56.8878 27.3115C56.8139 27.2298 56.7471 27.1403 56.6894 27.0452C56.6321 26.9508 56.59 26.8611 56.5595 26.7822C56.5008 26.6306 56.4884 26.5274 56.4882 26.5261C56.4878 26.5227 56.4893 26.5341 56.4913 26.5656C56.4933 26.597 56.4952 26.6409 56.4967 26.7019C56.4998 26.8309 56.5 26.986 56.5 27.21H61.5ZM61.5 34.79V27.21H56.5V34.79H61.5ZM60.5951 38.0435C61.1986 37.3767 61.3804 36.6314 61.4472 36.113C61.5049 35.6654 61.5 35.1533 61.5 34.79H56.5C56.5 35.014 56.4998 35.169 56.4967 35.2981C56.4952 35.3591 56.4933 35.4029 56.4913 35.4344C56.4893 35.4659 56.4878 35.4773 56.4882 35.4739C56.4884 35.4726 56.5008 35.3694 56.5595 35.2178C56.59 35.1389 56.6321 35.0492 56.6894 34.9547C56.7471 34.8597 56.8139 34.7702 56.8878 34.6885L60.5951 38.0435ZM57.4478 39.2677C57.8092 39.2315 58.3193 39.1854 58.7589 39.0835C59.2681 38.9654 59.9916 38.7104 60.5951 38.0435L56.8878 34.6885C56.9617 34.6068 57.0441 34.5315 57.133 34.4646C57.2213 34.3982 57.3064 34.3473 57.3818 34.3091C57.5269 34.2356 57.6282 34.213 57.6296 34.2127C57.6329 34.2119 57.6217 34.2146 57.5905 34.2197C57.5595 34.2248 57.5161 34.2311 57.4555 34.2387C57.3274 34.2546 57.1731 34.2702 56.9502 34.2925L57.4478 39.2677ZM51.2952 39.8829L57.4478 39.2677L56.9502 34.2925L50.7977 34.9078L51.2952 39.8829ZM50.6768 39.1499C50.6065 39.3196 50.5072 39.4842 50.3808 39.6319C50.2564 39.7774 50.1284 39.8803 50.0223 39.9497C49.8304 40.0754 49.7067 40.0936 49.79 40.0727C49.8636 40.0542 50.01 40.0262 50.2851 39.9914C50.5555 39.9571 50.8769 39.9248 51.2952 39.8829L50.7977 34.9078C50.0654 34.981 49.2295 35.0579 48.5701 35.2238C47.9073 35.3905 46.6382 35.8343 46.0574 37.2365L50.6768 39.1499ZM51.6324 39.0688C51.3662 38.7434 51.1618 38.4933 50.9949 38.2779C50.825 38.0588 50.7412 37.9354 50.7023 37.8703C50.6582 37.7966 50.7327 37.897 50.7796 38.1215C50.8055 38.2456 50.8232 38.4089 50.8084 38.5997C50.7933 38.7936 50.7471 38.9802 50.6768 39.1499L46.0574 37.2365C45.4767 38.6386 46.0602 39.8498 46.411 40.4364C46.7599 41.0199 47.2966 41.6654 47.7626 42.235L51.6324 39.0688ZM55.5476 43.854L51.6324 39.0688L47.7626 42.235L51.6778 47.0202L55.5476 43.854ZM56.9075 46.9451C56.9522 46.0468 56.621 45.3549 56.3445 44.9114C56.1057 44.5285 55.7776 44.1351 55.5476 43.854L51.6778 47.0202C51.8196 47.1935 51.9177 47.3136 51.997 47.4155C52.0345 47.4637 52.0607 47.4988 52.0791 47.5244C52.0975 47.5501 52.1035 47.5598 52.1017 47.557C52.101 47.5558 52.0453 47.4681 51.9947 47.3136C51.9684 47.2332 51.9442 47.1371 51.9287 47.0277C51.9132 46.9176 51.9082 46.8061 51.9137 46.696L56.9075 46.9451ZM55.2467 49.8855C55.5036 49.6287 55.8692 49.27 56.1449 48.9127C56.4642 48.4989 56.8626 47.8434 56.9074 46.9451L51.9137 46.696C51.9191 46.586 51.9352 46.4755 51.9616 46.3675C51.9879 46.2602 52.0216 46.167 52.0558 46.0896C52.1215 45.9409 52.1856 45.8592 52.1864 45.8581C52.1885 45.8554 52.1816 45.8645 52.1607 45.8882C52.1399 45.9119 52.1102 45.9442 52.0681 45.9884C51.9791 46.0819 51.8696 46.1916 51.7112 46.35L55.2467 49.8855ZM49.8868 55.2455L55.2467 49.8855L51.7112 46.35L46.3513 51.7099L49.8868 55.2455ZM46.9464 56.9062C47.8447 56.8614 48.5002 56.4629 48.914 56.1436C49.2713 55.8679 49.63 55.5023 49.8868 55.2454L46.3513 51.7099C46.1929 51.8683 46.0832 51.9778 45.9897 52.0668C45.9455 52.109 45.9132 52.1386 45.8895 52.1594C45.8658 52.1803 45.8567 52.1872 45.8594 52.1851C45.8605 52.1843 45.9422 52.1202 46.0909 52.0545C46.1683 52.0203 46.2615 51.9866 46.3688 51.9604C46.4768 51.9339 46.5873 51.9179 46.6973 51.9124L46.9464 56.9062ZM43.8553 55.5463C44.1364 55.7763 44.5298 56.1044 44.9127 56.3432C45.3562 56.6197 46.0481 56.951 46.9464 56.9062L46.6973 51.9124C46.8074 51.9069 46.9189 51.9119 47.029 51.9274C47.1384 51.9429 47.2345 51.9671 47.3149 51.9934C47.4694 52.044 47.5571 52.0997 47.5583 52.1004C47.5611 52.1022 47.5514 52.0962 47.5257 52.0778C47.5001 52.0594 47.465 52.0332 47.4168 51.9957C47.3149 51.9164 47.1948 51.8183 47.0215 51.6765L43.8553 55.5463ZM39.0688 51.6301L43.8553 55.5463L47.0215 51.6765L42.235 47.7603L39.0688 51.6301ZM39.1499 50.6745C38.9802 50.7448 38.7936 50.7909 38.5997 50.806C38.4089 50.8209 38.2456 50.8031 38.1215 50.7772C37.897 50.7304 37.7966 50.6558 37.8703 50.6999C37.9354 50.7388 38.0588 50.8226 38.2779 50.9925C38.4933 51.1594 38.7434 51.3638 39.0688 51.6301L42.235 47.7603C41.6654 47.2943 41.0199 46.7575 40.4364 46.4086C39.8498 46.0578 38.6386 45.4743 37.2365 46.0551L39.1499 50.6745ZM39.8829 51.2928C39.9248 50.8745 39.9571 50.5531 39.9914 50.2828C40.0262 50.0077 40.0542 49.8612 40.0727 49.7877C40.0936 49.7043 40.0754 49.8281 39.9497 50.02C39.8803 50.126 39.7774 50.254 39.6319 50.3784C39.4842 50.5048 39.3196 50.6042 39.1499 50.6745L37.2365 46.0551C35.8343 46.6359 35.3905 47.9049 35.2238 48.5678C35.0579 49.2271 34.981 50.0631 34.9078 50.7953L39.8829 51.2928ZM39.2674 57.4478L39.8829 51.2928L34.9078 50.7953L34.2923 56.9502L39.2674 57.4478ZM38.0433 60.5951C38.7101 59.9916 38.9652 59.2681 39.0832 58.7589C39.1852 58.3193 39.2313 57.8092 39.2674 57.4478L34.2923 56.9502C34.27 57.1731 34.2544 57.3274 34.2384 57.4555C34.2309 57.5161 34.2246 57.5595 34.2195 57.5905C34.2144 57.6217 34.2117 57.6329 34.2125 57.6296C34.2128 57.6282 34.2354 57.5269 34.3089 57.3818C34.3471 57.3064 34.3979 57.2213 34.4644 57.133C34.5312 57.0441 34.6066 56.9617 34.6883 56.8878L38.0433 60.5951ZM34.7898 61.5C35.153 61.5 35.6652 61.5049 36.1128 61.4472C36.6311 61.3804 37.3764 61.1986 38.0433 60.5951L34.6883 56.8878C34.77 56.8139 34.8594 56.7471 34.9545 56.6894C35.049 56.6321 35.1387 56.59 35.2176 56.5595C35.3692 56.5008 35.4723 56.4884 35.4737 56.4882C35.477 56.4878 35.4657 56.4893 35.4341 56.4913C35.4027 56.4933 35.3589 56.4952 35.2978 56.4967C35.1688 56.4998 35.0138 56.5 34.7898 56.5V61.5ZM27.2097 61.5H34.7898V56.5H27.2097V61.5ZM23.9562 60.5951C24.6231 61.1986 25.3684 61.3804 25.8867 61.4472C26.3343 61.5049 26.8465 61.5 27.2097 61.5V56.5C26.9857 56.5 26.8307 56.4998 26.7017 56.4967C26.6406 56.4952 26.5968 56.4933 26.5654 56.4913C26.5338 56.4893 26.5225 56.4878 26.5259 56.4882C26.5272 56.4884 26.6303 56.5008 26.7819 56.5595C26.8608 56.59 26.9505 56.6321 27.045 56.6894C27.1401 56.7471 27.2296 56.8139 27.3113 56.8878L23.9562 60.5951ZM22.7321 57.4478C22.7682 57.8092 22.8143 58.3193 22.9163 58.7589C23.0343 59.2681 23.2894 59.9916 23.9562 60.5951L27.3112 56.8878C27.3929 56.9617 27.4683 57.0441 27.5351 57.133C27.6016 57.2213 27.6524 57.3064 27.6906 57.3818C27.7641 57.5269 27.7867 57.6282 27.787 57.6296C27.7878 57.6329 27.7851 57.6217 27.78 57.5905C27.7749 57.5595 27.7686 57.5161 27.7611 57.4555C27.7451 57.3274 27.7295 57.1731 27.7072 56.9503L22.7321 57.4478ZM22.1167 51.2942L22.7321 57.4478L27.7072 56.9502L27.0919 50.7967L22.1167 51.2942ZM22.8497 50.6759C22.68 50.6056 22.5155 50.5062 22.3677 50.3798C22.2223 50.2554 22.1194 50.1274 22.0499 50.0213C21.9243 49.8295 21.906 49.7057 21.927 49.789C21.9455 49.8626 21.9734 50.0091 22.0083 50.2842C22.0426 50.5545 22.0749 50.8759 22.1167 51.2942L27.0919 50.7967C27.0187 50.0644 26.9417 49.2285 26.7759 48.5692C26.6091 47.9063 26.1653 46.6373 24.7632 46.0565L22.8497 50.6759ZM22.9308 51.6314C23.2562 51.3652 23.5063 51.1608 23.7217 50.9939C23.9409 50.824 24.0642 50.7402 24.1293 50.7013C24.2031 50.6572 24.1026 50.7318 23.8781 50.7786C23.754 50.8045 23.5907 50.8223 23.3999 50.8074C23.2061 50.7923 23.0194 50.7462 22.8498 50.6759L24.7632 46.0565C23.361 45.4757 22.1498 46.0592 21.5632 46.41C20.9797 46.7589 20.3342 47.2956 19.7647 47.7617L22.9308 51.6314ZM18.1445 55.5476L22.9308 51.6314L19.7647 47.7617L14.9783 51.6778L18.1445 55.5476ZM15.0534 56.9074C15.9516 56.9522 16.6436 56.621 17.0871 56.3444C17.47 56.1057 17.8633 55.7776 18.1445 55.5476L14.9783 51.6778C14.8049 51.8196 14.6849 51.9177 14.583 51.9969C14.5348 52.0344 14.4997 52.0607 14.4741 52.0791C14.4484 52.0975 14.4386 52.1035 14.4415 52.1017C14.4427 52.101 14.5304 52.0453 14.6848 51.9947C14.7653 51.9684 14.8613 51.9442 14.9707 51.9287C15.0809 51.9131 15.1924 51.9082 15.3024 51.9136L15.0534 56.9074ZM12.1129 55.2467C12.3698 55.5036 12.7285 55.8692 13.0858 56.1449C13.4995 56.4642 14.1551 56.8626 15.0534 56.9074L15.3025 51.9136C15.4125 51.9191 15.523 51.9352 15.631 51.9616C15.7383 51.9879 15.8315 52.0215 15.9089 52.0557C16.0576 52.1215 16.1393 52.1856 16.1404 52.1864C16.1431 52.1885 16.1339 52.1816 16.1102 52.1607C16.0866 52.1398 16.0543 52.1102 16.01 52.0681C15.9166 51.9791 15.8068 51.8696 15.6485 51.7112L12.1129 55.2467ZM6.75302 49.8868L12.1129 55.2467L15.6485 51.7112L10.2886 46.3513L6.75302 49.8868ZM5.09232 46.9464C5.13712 47.8446 5.53558 48.5002 5.85488 48.914C6.13057 49.2712 6.49616 49.63 6.75303 49.8868L10.2886 46.3513C10.1302 46.1929 10.0207 46.0832 9.93163 45.9897C9.88952 45.9455 9.85991 45.9131 9.83909 45.8895C9.81819 45.8658 9.81126 45.8567 9.81333 45.8594C9.81416 45.8604 9.8783 45.9422 9.94401 46.0908C9.97821 46.1682 10.0119 46.2614 10.0381 46.3688C10.0646 46.4768 10.0806 46.5873 10.0861 46.6973L5.09232 46.9464ZM6.45219 43.8553C6.22216 44.1364 5.89408 44.5297 5.65531 44.9127C5.37877 45.3562 5.04752 46.0481 5.09232 46.9464L10.0861 46.6973C10.0916 46.8073 10.0866 46.9189 10.0711 47.029C10.0556 47.1384 10.0314 47.2345 10.0051 47.3149C9.95447 47.4694 9.89878 47.5571 9.89807 47.5582C9.89627 47.5611 9.90225 47.5513 9.92069 47.5257C9.93906 47.5001 9.9653 47.465 10.0028 47.4168C10.0821 47.3149 10.1801 47.1948 10.322 47.0215L6.45219 43.8553ZM10.3683 39.0689L6.4522 43.8553L10.322 47.0215L14.2381 42.2351L10.3683 39.0689ZM11.3239 39.15C11.2536 38.9803 11.2075 38.7937 11.1924 38.5998C11.1775 38.409 11.1953 38.2457 11.2212 38.1216C11.268 37.8971 11.3426 37.7966 11.2985 37.8704C11.2596 37.9355 11.1758 38.0588 11.0059 38.278C10.839 38.4934 10.6346 38.7435 10.3683 39.0689L14.2381 42.2351C14.7041 41.6655 15.2409 41.02 15.5898 40.4365C15.9406 39.8499 16.5241 38.6387 15.9433 37.2366L11.3239 39.15ZM10.7056 39.883C11.1239 39.9248 11.4453 39.9572 11.7156 39.9914C11.9907 40.0263 12.1372 40.0542 12.2107 40.0727C12.2941 40.0937 12.1703 40.0754 11.9784 39.9498C11.8724 39.8803 11.7443 39.7774 11.62 39.632C11.4936 39.4842 11.3942 39.3197 11.3239 39.15L15.9433 37.2366C15.3625 35.8344 14.0935 35.3906 13.4306 35.2238C12.7713 35.058 11.9353 34.9811 11.2031 34.9078L10.7056 39.883ZM4.55223 39.2677L10.7056 39.883L11.2031 34.9078L5.04975 34.2925L4.55223 39.2677ZM1.40492 38.0435C2.00841 38.7104 2.73193 38.9654 3.24106 39.0835C3.68066 39.1854 4.19077 39.2315 4.55223 39.2677L5.04975 34.2925C4.82688 34.2702 4.67264 34.2546 4.54455 34.2387C4.48395 34.2311 4.44055 34.2248 4.40948 34.2197C4.37828 34.2146 4.36714 34.2119 4.37044 34.2127C4.37176 34.213 4.47314 34.2356 4.61815 34.3091C4.69364 34.3473 4.7787 34.3982 4.86699 34.4646C4.95586 34.5315 5.03825 34.6068 5.11217 34.6885L1.40492 38.0435ZM0.5 34.79C0.5 35.1533 0.495143 35.6654 0.552826 36.113C0.619631 36.6314 0.801423 37.3767 1.40492 38.0435L5.11217 34.6885C5.1861 34.7702 5.25288 34.8597 5.31057 34.9547C5.36788 35.0492 5.40999 35.1389 5.44054 35.2178C5.49921 35.3694 5.51164 35.4726 5.51181 35.4739C5.51224 35.4773 5.51068 35.4659 5.5087 35.4344C5.50672 35.4029 5.50479 35.3591 5.5033 35.2981C5.50015 35.169 5.5 35.014 5.5 34.79H0.5ZM0.5 27.21V34.79H5.5V27.21H0.5ZM1.40492 23.9565C0.801426 24.6233 0.619632 25.3686 0.552826 25.887C0.495143 26.3345 0.5 26.8467 0.5 27.21H5.5C5.5 26.986 5.50015 26.8309 5.5033 26.7019C5.50479 26.6409 5.50672 26.597 5.5087 26.5656C5.51068 26.5341 5.51224 26.5227 5.51181 26.5261C5.51164 26.5274 5.49921 26.6306 5.44053 26.7822C5.40999 26.8611 5.36788 26.9508 5.31057 27.0452C5.25288 27.1403 5.18611 27.2298 5.11218 27.3115L1.40492 23.9565ZM4.55221 22.7323C4.19076 22.7684 3.68065 22.8146 3.24105 22.9165C2.73192 23.0346 2.0084 23.2896 1.40491 23.9565L5.11218 27.3115C5.03825 27.3932 4.95586 27.4685 4.86699 27.5354C4.7787 27.6018 4.69364 27.6526 4.61816 27.6909C4.47315 27.7643 4.37176 27.787 4.37045 27.7873C4.36714 27.788 4.37828 27.7854 4.40947 27.7803C4.44055 27.7752 4.48394 27.7689 4.54454 27.7613C4.67263 27.7453 4.82687 27.7298 5.04974 27.7075L4.55221 22.7323ZM4.80099 22.7199H4.80097V27.7199H4.80099V22.7199ZM10.7068 22.1168L4.55223 22.7323L5.04975 27.7075L11.2043 27.092L10.7068 22.1168ZM11.3251 22.8499C11.3954 22.6802 11.4948 22.5156 11.6212 22.3678C11.7455 22.2224 11.8736 22.1195 11.9796 22.0501C12.1715 21.9244 12.2953 21.9061 12.2119 21.9271C12.1384 21.9456 11.9919 21.9736 11.7168 22.0084C11.4465 22.0427 11.1251 22.075 10.7068 22.1168L11.2043 27.092C11.9365 27.0188 12.7725 26.9419 13.4318 26.776C14.0947 26.6093 15.3637 26.1654 15.9445 24.7633L11.3251 22.8499ZM10.3695 22.931C10.6358 23.2564 10.8402 23.5065 11.0071 23.7219C11.177 23.941 11.2608 24.0644 11.2997 24.1295C11.3438 24.2032 11.2692 24.1028 11.2224 23.8783C11.1965 23.7542 11.1787 23.5909 11.1936 23.4001C11.2087 23.2062 11.2548 23.0196 11.3251 22.8499L15.9445 24.7633C16.5253 23.3612 15.9418 22.15 15.591 21.5633C15.2421 20.9799 14.7053 20.3344 14.2393 19.7648L10.3695 22.931ZM6.4525 18.1435L10.3695 22.931L14.2393 19.7648L10.3223 14.9773L6.4525 18.1435ZM5.09263 15.0524C5.04782 15.9507 5.37908 16.6426 5.65562 17.0861C5.89439 17.469 6.22247 17.8623 6.4525 18.1435L10.3223 14.9773C10.1805 14.8039 10.0824 14.6839 10.0031 14.582C9.96561 14.5338 9.93937 14.4987 9.921 14.4731C9.90256 14.4474 9.89658 14.4376 9.89837 14.4405C9.89909 14.4417 9.95478 14.5294 10.0054 14.6839C10.0317 14.7643 10.0559 14.8604 10.0714 14.9698C10.0869 15.0799 10.0919 15.1914 10.0864 15.3015L5.09263 15.0524ZM6.75333 12.1119C6.49646 12.3688 6.13087 12.7275 5.85518 13.0848C5.53589 13.4986 5.13743 14.1541 5.09263 15.0524L10.0864 15.3015C10.0809 15.4115 10.0649 15.522 10.0384 15.63C10.0122 15.7373 9.97852 15.8305 9.94431 15.9079C9.87861 16.0566 9.81447 16.1383 9.81364 16.1394C9.81157 16.1421 9.81849 16.133 9.8394 16.1092C9.86022 16.0856 9.88983 16.0533 9.93194 16.0091C10.021 15.9156 10.1305 15.8059 10.2889 15.6475L6.75333 12.1119ZM12.1132 6.75203L6.75333 12.1119L10.2889 15.6475L15.6488 10.2876L12.1132 6.75203ZM15.0537 5.09133C14.1554 5.13613 13.4999 5.5346 13.0861 5.85389C12.7288 6.12958 12.3701 6.49517 12.1132 6.75203L15.6488 10.2876C15.8072 10.1292 15.9169 10.0197 16.0103 9.93065C16.0546 9.88853 16.0869 9.85892 16.1105 9.8381C16.1342 9.8172 16.1434 9.81027 16.1407 9.81235C16.1396 9.81317 16.0579 9.87731 15.9092 9.94302C15.8318 9.97722 15.7386 10.0109 15.6313 10.0371C15.5233 10.0636 15.4128 10.0796 15.3028 10.0851L15.0537 5.09133ZM18.1448 6.45121C17.8636 6.22118 17.4703 5.89309 17.0874 5.65432C16.6439 5.37779 15.952 5.04653 15.0537 5.09133L15.3027 10.0851C15.1927 10.0906 15.0812 10.0856 14.9711 10.0701C14.8617 10.0546 14.7656 10.0304 14.6851 10.0041C14.5307 9.95348 14.443 9.89779 14.4418 9.89708C14.4389 9.89528 14.4487 9.90127 14.4744 9.91971C14.5 9.93807 14.5351 9.96432 14.5833 10.0018C14.6852 10.0811 14.8052 10.1792 14.9786 10.321L18.1448 6.45121ZM22.931 10.3672L18.1448 6.45121L14.9786 10.321L19.7648 14.237L22.931 10.3672ZM22.8499 11.3228C23.0196 11.2525 23.2062 11.2063 23.4001 11.1912C23.5909 11.1764 23.7542 11.1942 23.8783 11.22C24.1028 11.2669 24.2032 11.3414 24.1295 11.2973C24.0643 11.2584 23.941 11.1746 23.7219 11.0047C23.5065 10.8378 23.2564 10.6334 22.931 10.3672L19.7648 14.237C20.3344 14.703 20.9799 15.2397 21.5633 15.5886C22.15 15.9394 23.3612 16.5229 24.7633 15.9422L22.8499 11.3228ZM22.1168 10.7044C22.075 11.1227 22.0427 11.4441 22.0084 11.7145C21.9736 11.9896 21.9456 12.136 21.9271 12.2096C21.9061 12.2929 21.9244 12.1692 22.0501 11.9773C22.1195 11.8712 22.2224 11.7432 22.3678 11.6188C22.5156 11.4924 22.6802 11.3931 22.8499 11.3228L24.7633 15.9422C26.1654 15.3614 26.6093 14.0923 26.776 13.4295C26.9419 12.7701 27.0188 11.9342 27.092 11.2019L22.1168 10.7044ZM22.7321 4.55223L22.1168 10.7044L27.092 11.2019L27.7072 5.04975L22.7321 4.55223ZM23.9562 1.40491C23.2894 2.00841 23.0343 2.73193 22.9163 3.24106C22.8143 3.68067 22.7682 4.19078 22.7321 4.55224L27.7072 5.04975C27.7295 4.82687 27.7451 4.67263 27.7611 4.54454C27.7686 4.48394 27.7749 4.44055 27.78 4.40947C27.7851 4.37828 27.7878 4.36714 27.787 4.37044C27.7867 4.37176 27.7641 4.47315 27.6906 4.61816C27.6524 4.69364 27.6016 4.7787 27.5351 4.86699C27.4683 4.95586 27.3929 5.03825 27.3112 5.11218L23.9562 1.40491ZM27.2097 0.5C26.8465 0.5 26.3343 0.495143 25.8867 0.552826C25.3684 0.619632 24.6231 0.801425 23.9562 1.40491L27.3112 5.11218C27.2296 5.18611 27.1401 5.25288 27.045 5.31057C26.9505 5.36788 26.8608 5.40999 26.7819 5.44054C26.6303 5.49921 26.5272 5.51164 26.5259 5.51181C26.5225 5.51224 26.5338 5.51068 26.5654 5.5087C26.5968 5.50672 26.6406 5.50479 26.7017 5.5033C26.8307 5.50015 26.9857 5.5 27.2097 5.5V0.5ZM34.7898 0.5H27.2097V5.5H34.7898V0.5ZM38.0433 1.40491C37.3764 0.801425 36.6311 0.619632 36.1128 0.552826C35.6652 0.495143 35.153 0.5 34.7898 0.5V5.5C35.0138 5.5 35.1688 5.50015 35.2978 5.5033C35.3589 5.50479 35.4027 5.50672 35.4341 5.5087C35.4657 5.51068 35.477 5.51224 35.4737 5.51181C35.4723 5.51164 35.3692 5.49921 35.2176 5.44054C35.1387 5.40999 35.049 5.36788 34.9545 5.31057C34.8594 5.25288 34.77 5.18611 34.6883 5.11219L38.0433 1.40491ZM39.7 31C39.7 35.8049 35.8049 39.7 31 39.7V44.7C38.5663 44.7 44.7 38.5663 44.7 31H39.7ZM31 22.3C35.8049 22.3 39.7 26.1951 39.7 31H44.7C44.7 23.4337 38.5663 17.3 31 17.3V22.3ZM22.3 31C22.3 26.1951 26.1952 22.3 31 22.3V17.3C23.4337 17.3 17.3 23.4337 17.3 31H22.3ZM31 39.7C26.1952 39.7 22.3 35.8049 22.3 31H17.3C17.3 38.5663 23.4337 44.7 31 44.7V39.7Z" fill="white"/>
</svg>
